<?xml version="1.0" encoding="UTF-8" standalone="no"?>
<!DOCTYPE svg PUBLIC "-//W3C//DTD SVG 1.1//EN" "http://www.w3.org/Graphics/SVG/1.1/DTD/svg11.dtd">
<svg width="100%" height="100%" viewBox="0 0 3508 2481" version="1.1" xmlns="http://www.w3.org/2000/svg" xmlns:xlink="http://www.w3.org/1999/xlink" xml:space="preserve" xmlns:serif="http://www.serif.com/" style="fill-rule:evenodd;clip-rule:evenodd;stroke-linejoin:round;stroke-miterlimit:2;">
    <g transform="matrix(1.1547,0,0,0.939546,-92.6704,78.3867)">
        <g transform="matrix(0.57735,0.333333,0,1.1547,1853.22,-1818.47)">
            <path d="M933.071,2338.58L1181.1,2338.58L1181.1,1889.76L472.441,1889.76L472.441,2338.58L720.472,2338.58L720.472,2102.36L933.071,2102.36L933.071,2338.58Z" style="fill:rgb(101,126,255);"/>
        </g>
        <g transform="matrix(0.57735,-0.333333,-5.55112e-17,1.1547,1825.94,-1015.32)">
            <path d="M1937.01,1889.76L1228.35,1889.76L1228.35,2338.58L1937.01,2338.58L1937.01,1889.76ZM1694.04,2055.12L1481.44,2055.12L1481.44,2220.47L1694.04,2220.47L1694.04,2055.12Z" style="fill:rgb(0,34,205);"/>
        </g>
        <g transform="matrix(-0.865801,-1.0603e-16,1.90501e-16,-1.55556,3180.28,2951.56)">
            <path d="M745.153,1410.57L1217.72,1562.43L745.153,1775.03L745.153,1410.57Z" style="fill:rgb(206,214,255);"/>
        </g>
        <g transform="matrix(0.865801,8.33375e-16,0,1.55556,1638.61,-2192.79)">
            <path d="M1035.48,1532.06L1508.04,1744.66L1035.48,1896.51L1035.48,1532.06Z" style="fill:rgb(102,126,255);"/>
        </g>
    </g>
    <g transform="matrix(1.1547,0,0,0.939546,-98.4049,79.7337)">
        <g transform="matrix(0.57735,0.333333,0,1.1547,57.9448,-1819.91)">
            <path d="M933.071,2338.58L1181.1,2338.58L1181.1,1889.76L472.441,1889.76L472.441,2338.58L720.472,2338.58L720.472,2102.36L933.071,2102.36L933.071,2338.58Z" style="fill:rgb(255,101,101);"/>
        </g>
        <g transform="matrix(0.57735,-0.333333,-5.55112e-17,1.1547,30.6684,-1016.76)">
            <path d="M1937.01,1889.76L1228.35,1889.76L1228.35,2338.58L1937.01,2338.58L1937.01,1889.76ZM1694.04,2055.12L1481.44,2055.12L1481.44,2220.47L1694.04,2220.47L1694.04,2055.12Z" style="fill:rgb(205,0,0);"/>
        </g>
        <g transform="matrix(-0.865801,-1.0603e-16,1.90501e-16,-1.55556,1385.01,2950.13)">
            <path d="M745.153,1410.57L1217.72,1562.43L745.153,1775.03L745.153,1410.57Z" style="fill:rgb(255,206,206);"/>
        </g>
        <g transform="matrix(0.865801,8.33375e-16,0,1.55556,-156.662,-2194.23)">
            <path d="M1035.48,1532.06L1508.04,1744.66L1035.48,1896.51L1035.48,1532.06Z" style="fill:rgb(255,102,102);"/>
        </g>
    </g>
    <g transform="matrix(1.1547,0,0,0.938305,-114.072,78.623)">
        <g transform="matrix(0.57735,0.333333,0,1.1547,971.634,-1818.47)">
            <path d="M933.071,2338.58L1181.1,2338.58L1181.1,1889.76L472.441,1889.76L472.441,2338.58L720.472,2338.58L720.472,2102.36L933.071,2102.36L933.071,2338.58Z" style="fill:rgb(255,229,101);"/>
        </g>
        <g transform="matrix(0.57735,-0.333333,-5.55112e-17,1.1547,944.357,-1015.32)">
            <path d="M1937.01,1889.76L1228.35,1889.76L1228.35,2338.58L1937.01,2338.58L1937.01,1889.76ZM1694.04,2055.12L1481.44,2055.12L1481.44,2220.47L1694.04,2220.47L1694.04,2055.12Z" style="fill:rgb(205,171,0);"/>
        </g>
        <g transform="matrix(-0.865801,-1.0603e-16,1.90501e-16,-1.55556,2298.7,2951.56)">
            <path d="M745.153,1410.57L1217.72,1562.43L745.153,1775.03L745.153,1410.57Z" style="fill:rgb(255,247,206);"/>
        </g>
        <g transform="matrix(0.865801,8.33375e-16,0,1.55556,757.027,-2192.79)">
            <path d="M1035.48,1532.06L1508.04,1744.66L1035.48,1896.51L1035.48,1532.06Z" style="fill:rgb(255,229,102);"/>
        </g>
    </g>
    <g transform="matrix(7.02433,0,0,7.15141,-4706.1,-8071.36)">
        <g transform="matrix(50,0,0,50,707.776,1438.58)">
            <path d="M0.613,-0.323L0.352,-0.323L0.352,-0.278L0.566,-0.278L0.566,-0.045L0.378,-0.045C0.327,-0.045 0.28,-0.058 0.237,-0.084C0.194,-0.109 0.159,-0.144 0.134,-0.187C0.109,-0.23 0.096,-0.278 0.096,-0.329C0.096,-0.38 0.109,-0.428 0.134,-0.47C0.159,-0.514 0.194,-0.548 0.237,-0.573C0.28,-0.598 0.327,-0.611 0.378,-0.611C0.417,-0.611 0.454,-0.603 0.49,-0.588C0.526,-0.572 0.557,-0.55 0.584,-0.521L0.617,-0.552C0.586,-0.585 0.55,-0.611 0.508,-0.63C0.467,-0.649 0.423,-0.658 0.378,-0.658C0.319,-0.658 0.264,-0.643 0.214,-0.614C0.164,-0.584 0.124,-0.544 0.095,-0.494C0.066,-0.443 0.051,-0.388 0.051,-0.329C0.051,-0.269 0.066,-0.214 0.095,-0.164C0.124,-0.113 0.164,-0.073 0.214,-0.044C0.264,-0.015 0.319,-0 0.378,-0L0.613,-0L0.613,-0.323Z" style="fill-rule:nonzero;"/>
        </g>
        <g transform="matrix(50,0,0,50,743.476,1438.58)">
            <path d="M0.512,-0L0.512,-0.047L0.136,-0.047L0.136,-0.302L0.429,-0.302L0.429,-0.348L0.136,-0.348L0.136,-0.604L0.512,-0.604L0.512,-0.65L0.091,-0.65L0.091,-0L0.512,-0Z" style="fill-rule:nonzero;"/>
        </g>
        <g transform="matrix(50,0,0,50,773.076,1438.58)">
            <path d="M0.435,-0.342C0.466,-0.329 0.492,-0.308 0.514,-0.28C0.535,-0.251 0.546,-0.219 0.546,-0.183C0.546,-0.16 0.541,-0.137 0.531,-0.115C0.52,-0.092 0.505,-0.072 0.486,-0.055C0.466,-0.038 0.443,-0.024 0.416,-0.015C0.389,-0.005 0.36,-0 0.33,-0L0.091,-0L0.092,-0.65L0.278,-0.65C0.339,-0.65 0.387,-0.633 0.423,-0.599C0.44,-0.584 0.453,-0.566 0.462,-0.546C0.47,-0.526 0.475,-0.505 0.475,-0.484C0.475,-0.457 0.469,-0.433 0.457,-0.411C0.444,-0.389 0.429,-0.372 0.411,-0.36L0.402,-0.354C0.415,-0.35 0.426,-0.346 0.435,-0.342ZM0.137,-0.367L0.276,-0.367C0.294,-0.367 0.309,-0.368 0.321,-0.37C0.333,-0.372 0.345,-0.375 0.357,-0.38C0.374,-0.387 0.391,-0.4 0.406,-0.418C0.422,-0.436 0.43,-0.458 0.43,-0.484C0.43,-0.505 0.424,-0.524 0.412,-0.543C0.401,-0.561 0.384,-0.576 0.361,-0.587C0.338,-0.598 0.31,-0.604 0.278,-0.604L0.137,-0.604L0.137,-0.367ZM0.33,-0.045C0.364,-0.045 0.394,-0.052 0.42,-0.065C0.446,-0.078 0.466,-0.096 0.48,-0.117C0.494,-0.138 0.501,-0.16 0.501,-0.183C0.501,-0.209 0.493,-0.233 0.476,-0.254C0.46,-0.275 0.441,-0.29 0.418,-0.3C0.386,-0.314 0.346,-0.321 0.297,-0.321L0.137,-0.321L0.137,-0.045L0.33,-0.045Z" style="fill-rule:nonzero;"/>
        </g>
        <g transform="matrix(50,0,0,50,802.426,1438.58)">
            <path d="M0.177,-0.165L0.1,-0L0.05,-0L0.356,-0.658L0.645,-0L0.596,-0L0.523,-0.165L0.177,-0.165ZM0.354,-0.547L0.198,-0.21L0.503,-0.21L0.354,-0.547ZM0.236,-0.787C0.226,-0.787 0.218,-0.784 0.211,-0.777C0.204,-0.77 0.201,-0.761 0.201,-0.752C0.201,-0.742 0.204,-0.734 0.212,-0.727C0.219,-0.72 0.227,-0.717 0.236,-0.717C0.245,-0.717 0.254,-0.72 0.261,-0.727C0.268,-0.734 0.271,-0.742 0.271,-0.752C0.271,-0.761 0.268,-0.77 0.261,-0.777C0.254,-0.784 0.245,-0.787 0.236,-0.787ZM0.421,-0.787C0.412,-0.787 0.404,-0.784 0.397,-0.777C0.39,-0.77 0.387,-0.761 0.387,-0.752C0.387,-0.742 0.39,-0.734 0.397,-0.727C0.404,-0.72 0.412,-0.717 0.421,-0.717C0.43,-0.717 0.439,-0.72 0.446,-0.727C0.453,-0.734 0.456,-0.742 0.456,-0.752C0.456,-0.761 0.453,-0.77 0.446,-0.777C0.439,-0.784 0.43,-0.787 0.421,-0.787Z" style="fill-rule:nonzero;"/>
        </g>
        <g transform="matrix(50,0,0,50,835.426,1438.58)">
            <path d="M0.339,0.007C0.373,0.007 0.405,0 0.435,-0.013C0.465,-0.025 0.492,-0.044 0.515,-0.068C0.538,-0.091 0.556,-0.117 0.569,-0.148C0.581,-0.179 0.587,-0.211 0.587,-0.245L0.587,-0.65L0.542,-0.65L0.542,-0.245C0.542,-0.217 0.537,-0.19 0.527,-0.165C0.516,-0.14 0.502,-0.118 0.483,-0.099C0.464,-0.08 0.442,-0.065 0.417,-0.055C0.392,-0.044 0.366,-0.039 0.339,-0.039C0.312,-0.039 0.287,-0.044 0.262,-0.055C0.237,-0.065 0.215,-0.08 0.196,-0.099C0.177,-0.118 0.163,-0.14 0.153,-0.165C0.142,-0.19 0.137,-0.217 0.137,-0.245L0.137,-0.65L0.092,-0.65L0.092,-0.245C0.092,-0.211 0.098,-0.179 0.111,-0.148C0.123,-0.117 0.141,-0.091 0.164,-0.068C0.187,-0.044 0.214,-0.025 0.245,-0.013C0.275,0 0.306,0.007 0.339,0.007Z" style="fill-rule:nonzero;"/>
        </g>
        <g transform="matrix(50,0,0,50,869.376,1438.58)">
            <path d="M0.278,-0C0.324,-0 0.367,-0.009 0.406,-0.025C0.445,-0.043 0.479,-0.067 0.508,-0.099C0.535,-0.13 0.556,-0.164 0.571,-0.203C0.586,-0.242 0.593,-0.283 0.593,-0.326C0.593,-0.369 0.586,-0.41 0.571,-0.449C0.556,-0.488 0.535,-0.522 0.508,-0.552C0.479,-0.583 0.445,-0.608 0.406,-0.625C0.367,-0.642 0.324,-0.65 0.278,-0.65L0.091,-0.65L0.091,-0L0.278,-0ZM0.136,-0.604L0.278,-0.604C0.358,-0.604 0.424,-0.576 0.475,-0.521C0.498,-0.496 0.516,-0.466 0.529,-0.433C0.541,-0.399 0.547,-0.363 0.547,-0.326C0.547,-0.288 0.541,-0.252 0.529,-0.219C0.516,-0.185 0.498,-0.155 0.475,-0.13C0.424,-0.073 0.359,-0.045 0.278,-0.045L0.136,-0.045L0.136,-0.604Z" style="fill-rule:nonzero;"/>
        </g>
        <g transform="matrix(50,0,0,50,902.026,1438.58)">
            <path d="M0.512,-0L0.512,-0.047L0.136,-0.047L0.136,-0.302L0.429,-0.302L0.429,-0.348L0.136,-0.348L0.136,-0.604L0.512,-0.604L0.512,-0.65L0.091,-0.65L0.091,-0L0.512,-0Z" style="fill-rule:nonzero;"/>
        </g>
        <g transform="matrix(50,0,0,50,932.626,1438.58)">
            <path d="M0.615,-0.65L0.615,-0.604L0.358,-0.604L0.358,-0L0.312,-0L0.312,-0.604L0.054,-0.604L0.054,-0.65L0.615,-0.65Z" style="fill-rule:nonzero;"/>
        </g>
        <g transform="matrix(50,0,0,50,966.076,1438.58)">
            <path d="M0.512,-0L0.512,-0.047L0.136,-0.047L0.136,-0.302L0.429,-0.302L0.429,-0.348L0.136,-0.348L0.136,-0.604L0.512,-0.604L0.512,-0.65L0.091,-0.65L0.091,-0L0.512,-0Z" style="fill-rule:nonzero;"/>
        </g>
        <g transform="matrix(50,0,0,50,995.676,1438.58)">
            <path d="M0.379,0.007C0.429,0.007 0.476,-0.004 0.521,-0.025C0.566,-0.047 0.604,-0.078 0.635,-0.117L0.599,-0.145C0.572,-0.112 0.539,-0.086 0.5,-0.067C0.462,-0.048 0.422,-0.039 0.379,-0.039C0.328,-0.039 0.28,-0.052 0.237,-0.078C0.194,-0.103 0.159,-0.138 0.134,-0.182C0.108,-0.226 0.095,-0.274 0.095,-0.326C0.095,-0.378 0.108,-0.426 0.134,-0.47C0.159,-0.514 0.194,-0.549 0.237,-0.575C0.28,-0.6 0.328,-0.613 0.379,-0.613C0.419,-0.613 0.457,-0.605 0.494,-0.588C0.53,-0.571 0.561,-0.548 0.588,-0.518L0.623,-0.549C0.591,-0.584 0.554,-0.611 0.511,-0.629C0.469,-0.649 0.425,-0.658 0.379,-0.658C0.32,-0.658 0.265,-0.643 0.214,-0.613C0.163,-0.583 0.123,-0.543 0.094,-0.492C0.065,-0.441 0.05,-0.386 0.05,-0.326C0.05,-0.266 0.065,-0.211 0.094,-0.16C0.123,-0.109 0.163,-0.068 0.214,-0.038C0.265,-0.008 0.32,0.007 0.379,0.007Z" style="fill-rule:nonzero;"/>
        </g>
        <g transform="matrix(50,0,0,50,1030.18,1438.58)">
            <path d="M0.522,-0L0.567,-0L0.567,-0.65L0.522,-0.65L0.522,-0.348L0.138,-0.348L0.138,-0.65L0.092,-0.65L0.092,-0L0.138,-0L0.138,-0.302L0.522,-0.302L0.522,-0Z" style="fill-rule:nonzero;"/>
        </g>
        <g transform="matrix(50,0,0,50,1063.63,1438.58)">
            <path d="M0.587,0.011L0.587,-0.65L0.542,-0.65L0.542,-0.12L0.092,-0.658L0.092,-0L0.137,-0L0.137,-0.528L0.587,0.011Z" style="fill-rule:nonzero;"/>
        </g>
        <g transform="matrix(50,0,0,50,1098.03,1438.58)">
            <rect x="0.103" y="-0.65" width="0.045" height="0.65" style="fill-rule:nonzero;"/>
        </g>
        <g transform="matrix(50,0,0,50,1111.08,1438.58)">
            <path d="M0.594,-0L0.534,-0L0.301,-0.277L0.091,0.011L0.091,-0.65L0.136,-0.65L0.136,-0.129L0.515,-0.65L0.572,-0.65L0.328,-0.316L0.594,-0Z" style="fill-rule:nonzero;"/>
        </g>
    </g>
    <g transform="matrix(13.8762,0,0,13.8738,-9597.43,-18105.5)">
        <g transform="matrix(50,0,0,50,707.776,1438.58)">
            <path d="M0.757,-0L0.757,-0.661L0.423,-0.227L0.086,-0.661L0.086,-0L0.171,-0L0.171,-0.417L0.423,-0.09L0.674,-0.416L0.674,-0L0.757,-0Z" style="fill-rule:nonzero;"/>
        </g>
        <g transform="matrix(50,0,0,50,750.426,1438.58)">
            <path d="M0.501,-0L0.501,-0.083L0.168,-0.083L0.168,-0.284L0.423,-0.284L0.423,-0.368L0.168,-0.368L0.168,-0.567L0.501,-0.567L0.501,-0.651L0.085,-0.651L0.085,-0L0.501,-0Z" style="fill-rule:nonzero;"/>
        </g>
        <g transform="matrix(50,0,0,50,779.226,1438.58)">
            <path d="M0.544,-0L0.439,-0L0.192,-0.349L0.286,-0.349C0.312,-0.349 0.334,-0.351 0.352,-0.354C0.37,-0.357 0.383,-0.361 0.392,-0.364C0.413,-0.373 0.43,-0.387 0.442,-0.406C0.453,-0.424 0.459,-0.442 0.459,-0.459C0.459,-0.478 0.453,-0.495 0.442,-0.511C0.431,-0.528 0.414,-0.541 0.393,-0.552C0.372,-0.562 0.347,-0.567 0.319,-0.567L0.168,-0.567L0.17,-0L0.085,-0L0.085,-0.651L0.319,-0.651C0.35,-0.651 0.38,-0.646 0.407,-0.636C0.434,-0.626 0.458,-0.612 0.479,-0.593C0.499,-0.575 0.515,-0.554 0.526,-0.531C0.537,-0.508 0.542,-0.484 0.542,-0.459C0.542,-0.42 0.53,-0.384 0.506,-0.353C0.496,-0.34 0.484,-0.327 0.469,-0.316C0.455,-0.305 0.44,-0.295 0.425,-0.288C0.4,-0.279 0.377,-0.274 0.356,-0.274L0.544,-0Z" style="fill-rule:nonzero;"/>
        </g>
        <g transform="matrix(50,0,0,50,808.526,1438.58)">
            <path d="M0.578,-0.651L0.578,-0.567L0.357,-0.567L0.357,-0L0.272,-0L0.272,-0.567L0.051,-0.567L0.051,-0.651L0.578,-0.651Z" style="fill-rule:nonzero;"/>
        </g>
        <g transform="matrix(50,0,0,50,839.976,1438.58)">
            <path d="M0.501,-0L0.501,-0.083L0.168,-0.083L0.168,-0.284L0.423,-0.284L0.423,-0.368L0.168,-0.368L0.168,-0.567L0.501,-0.567L0.501,-0.651L0.085,-0.651L0.085,-0L0.501,-0Z" style="fill-rule:nonzero;"/>
        </g>
        <g transform="matrix(50,0,0,50,868.776,1438.58)">
            <path d="M0.592,0.016L0.592,-0.651L0.509,-0.651L0.509,-0.204L0.086,-0.661L0.086,-0L0.17,-0L0.17,-0.443L0.592,0.016Z" style="fill-rule:nonzero;"/>
        </g>
        <g transform="matrix(50,0,0,50,902.626,1438.58)">
            <path d="M0.445,-0.333C0.476,-0.318 0.5,-0.297 0.519,-0.269C0.538,-0.24 0.547,-0.21 0.547,-0.179C0.547,-0.153 0.541,-0.128 0.528,-0.105C0.515,-0.081 0.496,-0.06 0.472,-0.043C0.45,-0.026 0.425,-0.014 0.397,-0.005C0.368,0.004 0.339,0.008 0.308,0.008C0.243,0.008 0.187,-0.009 0.142,-0.043C0.108,-0.068 0.085,-0.098 0.074,-0.135L0.152,-0.179C0.152,-0.161 0.159,-0.144 0.173,-0.128C0.188,-0.112 0.207,-0.099 0.231,-0.09C0.255,-0.08 0.281,-0.075 0.308,-0.075C0.335,-0.075 0.361,-0.08 0.385,-0.09C0.409,-0.099 0.428,-0.112 0.442,-0.128C0.456,-0.143 0.463,-0.16 0.463,-0.179C0.463,-0.194 0.458,-0.209 0.448,-0.224C0.438,-0.238 0.424,-0.25 0.405,-0.26C0.386,-0.27 0.351,-0.278 0.302,-0.284C0.247,-0.289 0.206,-0.298 0.178,-0.313C0.143,-0.329 0.116,-0.351 0.097,-0.38C0.078,-0.408 0.068,-0.438 0.068,-0.471C0.068,-0.497 0.075,-0.522 0.087,-0.546C0.101,-0.569 0.119,-0.59 0.142,-0.607C0.189,-0.641 0.244,-0.658 0.308,-0.658C0.339,-0.658 0.368,-0.654 0.396,-0.645C0.424,-0.636 0.449,-0.624 0.472,-0.607C0.505,-0.582 0.528,-0.552 0.541,-0.515L0.463,-0.471C0.463,-0.489 0.456,-0.506 0.442,-0.522C0.427,-0.538 0.408,-0.551 0.385,-0.56C0.361,-0.569 0.335,-0.574 0.308,-0.574C0.28,-0.574 0.254,-0.569 0.23,-0.56C0.206,-0.551 0.187,-0.538 0.173,-0.523C0.159,-0.507 0.152,-0.49 0.152,-0.471C0.152,-0.455 0.158,-0.439 0.17,-0.424C0.182,-0.408 0.197,-0.396 0.215,-0.388C0.228,-0.381 0.247,-0.376 0.27,-0.373C0.293,-0.369 0.308,-0.367 0.313,-0.366C0.34,-0.363 0.365,-0.359 0.386,-0.354C0.407,-0.349 0.427,-0.342 0.445,-0.333Z" style="fill-rule:nonzero;"/>
        </g>
    </g>
</svg>
